<svg width="35" height="35" viewBox="0 0 35 35" fill="none" xmlns="http://www.w3.org/2000/svg">
<path fill-rule="evenodd" clip-rule="evenodd" d="M15.8594 4.92183C16.1614 4.92183 16.4062 5.16666 16.4062 5.4687V15.8593C16.4062 16.1613 16.1614 16.4062 15.8594 16.4062H5.46875C5.1667 16.4062 4.92188 16.1613 4.92188 15.8593V5.4687C4.92188 5.16666 5.1667 4.92183 5.46875 4.92183H15.8594ZM14.082 7.24604H7.24609V14.082H14.082V7.24604ZM30.944 10.2431C31.1576 10.4567 31.1576 10.803 30.944 11.0165L24.7568 17.2037C24.5432 17.4173 24.197 17.4173 23.9834 17.2037L17.7962 11.0165C17.5827 10.803 17.5827 10.4567 17.7962 10.2431L23.9834 4.05592C24.197 3.84236 24.5432 3.84236 24.7568 4.05592L30.944 10.2431ZM28.0437 10.6298L24.3701 6.9562L20.6965 10.6298L24.3701 14.3035L28.0437 10.6298ZM15.8594 18.5937C16.1614 18.5937 16.4062 18.8386 16.4062 19.1406V29.5312C16.4062 29.8332 16.1614 30.0781 15.8594 30.0781H5.46875C5.1667 30.0781 4.92188 29.8332 4.92188 29.5312V19.1406C4.92188 18.8386 5.1667 18.5937 5.46875 18.5937H15.8594ZM14.082 20.9179H7.24609V27.7539H14.082V20.9179ZM29.5312 18.5937C29.8333 18.5937 30.0781 18.8386 30.0781 19.1406V29.5312C30.0781 29.8332 29.8333 30.0781 29.5312 30.0781H19.1406C18.8386 30.0781 18.5938 29.8332 18.5938 29.5312V19.1406C18.5938 18.8386 18.8386 18.5937 19.1406 18.5937H29.5312ZM27.7539 20.9179H20.918V27.7539H27.7539V20.9179Z" fill="#704116"/>
</svg>
